<svg width="19" height="22" viewBox="0 0 19 22" fill="none" xmlns="http://www.w3.org/2000/svg">
<path d="M17.0129 2.01321C14.3652 -0.671071 10.0537 -0.671071 7.40889 2.01321L0.073103 9.44485C0.025322 9.4933 2.59841e-05 9.55884 2.59841e-05 9.62723C2.59841e-05 9.69562 0.025322 9.76116 0.073103 9.8096L1.11023 10.8611C1.15764 10.9089 1.22181 10.9358 1.28871 10.9358C1.3556 10.9358 1.41978 10.9089 1.46718 10.8611L8.80297 3.42944C9.71362 2.50618 10.925 1.99896 12.2123 1.99896C13.4996 1.99896 14.7109 2.50618 15.6188 3.42944C16.5294 4.3527 17.0297 5.58086 17.0297 6.8831C17.0297 8.1882 16.5294 9.41351 15.6188 10.3368L8.14247 17.9137L6.93108 19.1419C5.79839 20.2903 3.95742 20.2903 2.82472 19.1419C2.27665 18.5862 1.97591 17.8482 1.97591 17.0617C1.97591 16.2752 2.27665 15.5372 2.82472 14.9815L10.242 7.46441C10.4303 7.27634 10.6777 7.17091 10.9419 7.17091H10.9447C11.2089 7.17091 11.4534 7.27634 11.6389 7.46441C11.8272 7.65533 11.9284 7.90609 11.9284 8.17395C11.9284 8.43896 11.8244 8.68972 11.6389 8.87779L5.57635 15.0186C5.52857 15.067 5.50327 15.1326 5.50327 15.201C5.50327 15.2693 5.52857 15.3349 5.57635 15.3833L6.61348 16.4348C6.66088 16.4827 6.72506 16.5095 6.79195 16.5095C6.85885 16.5095 6.92302 16.4827 6.97043 16.4348L13.0302 10.2912C13.5895 9.72411 13.8959 8.97183 13.8959 8.1711C13.8959 7.37038 13.5867 6.61524 13.0302 6.05103C11.875 4.87986 9.99749 4.88271 8.84232 6.05103L8.12279 6.78337L1.42783 13.5682C0.973439 14.0261 0.613249 14.571 0.368151 15.1712C0.123054 15.7714 -0.00207333 16.415 2.59841e-05 17.0646C2.59841e-05 18.3839 0.508753 19.6235 1.42783 20.5553C2.38064 21.5184 3.62857 22 4.8765 22C6.12442 22 7.37235 21.5184 8.32235 20.5553L17.0129 11.7501C18.2917 10.4507 19 8.72107 19 6.8831C19.0028 5.04229 18.2945 3.31261 17.0129 2.01321Z" fill="#9DA2B2"/>
</svg>
