<svg width="10" height="16" viewBox="0 0 10 16" fill="none" xmlns="http://www.w3.org/2000/svg">
<path fill-rule="evenodd" clip-rule="evenodd" d="M5.00002 14.5442C5.18942 14.5442 5.37107 14.4676 5.505 14.3312C5.63893 14.1948 5.71417 14.0098 5.71417 13.817V0.72713C5.71417 0.534261 5.63893 0.34929 5.505 0.212912C5.37107 0.0765324 5.18942 -8.39233e-05 5.00002 -8.39233e-05C4.81061 -8.39233e-05 4.62896 0.0765324 4.49503 0.212912C4.3611 0.34929 4.28586 0.534261 4.28586 0.72713V13.817C4.28586 14.0098 4.3611 14.1948 4.49503 14.3312C4.62896 14.4676 4.81061 14.5442 5.00002 14.5442Z" fill="#EEEEEE"/>
<path fill-rule="evenodd" clip-rule="evenodd" d="M4.49438 15.7864C4.56072 15.8541 4.63952 15.9078 4.72629 15.9445C4.81305 15.9811 4.90606 16 5 16C5.09394 16 5.18695 15.9811 5.27371 15.9445C5.36048 15.9078 5.43928 15.8541 5.50562 15.7864L9.79056 11.4231C9.92466 11.2865 10 11.1013 10 10.9082C10 10.7151 9.92466 10.5299 9.79056 10.3933C9.65647 10.2568 9.47459 10.1801 9.28494 10.1801C9.0953 10.1801 8.91342 10.2568 8.77932 10.3933L5 14.2432L1.22068 10.3933C1.08658 10.2568 0.904705 10.1801 0.715059 10.1801C0.525414 10.1801 0.343536 10.2568 0.209436 10.3933C0.0753365 10.5299 0 10.7151 0 10.9082C0 11.1013 0.0753365 11.2865 0.209436 11.4231L4.49438 15.7864Z" fill="#EEEEEE"/>
</svg>
