<svg width="13" height="13" viewBox="0 0 13 13" fill="none" xmlns="http://www.w3.org/2000/svg">
<path d="M12.5161 2.67648L10.2898 0.442166C9.99922 0.168256 9.61847 0.0110896 9.21997 0.000564904C8.82147 -0.00995984 8.43302 0.126891 8.12851 0.385085L0.815924 7.72407C0.553293 7.98988 0.389767 8.33827 0.352794 8.71076L0.00341494 12.1112C-0.0075304 12.2306 0.00791163 12.351 0.0486402 12.4637C0.0893687 12.5765 0.154381 12.6789 0.239043 12.7635C0.314963 12.8391 0.405003 12.8989 0.503997 12.9395C0.602991 12.98 0.708992 13.0006 0.815924 13H0.88905L4.27721 12.6901C4.64836 12.653 4.9955 12.4889 5.26035 12.2253L12.5729 4.88633C12.8568 4.5854 13.0101 4.18383 12.9995 3.76961C12.9888 3.35539 12.815 2.9623 12.5161 2.67648ZM9.75352 5.40006L7.576 3.21467L9.16039 1.58379L11.3785 3.80994L9.75352 5.40006Z" fill="#9DA2B2"/>
</svg>
