<svg width="17" height="16" viewBox="0 0 17 16" fill="none" xmlns="http://www.w3.org/2000/svg">
<path d="M12.8484 15.9999C12.6246 15.9997 12.406 15.9327 12.2205 15.8075L8.443 13.2757C8.4244 13.2629 8.40232 13.256 8.37971 13.256C8.3571 13.256 8.33502 13.2629 8.31641 13.2757L4.53893 15.8075C4.34924 15.9342 4.12551 16.0001 3.89745 15.9966C3.66939 15.9931 3.44779 15.9204 3.26208 15.7879C3.07637 15.6555 2.93533 15.4697 2.85769 15.2553C2.78005 15.0408 2.7695 14.8078 2.82741 14.5872L4.06801 10.2122C4.07387 10.1902 4.07316 10.167 4.06596 10.1454C4.05876 10.1238 4.04539 10.1047 4.0275 10.0907L0.452562 7.28034C0.264366 7.14014 0.124766 6.94456 0.0533364 6.72101C-0.0180931 6.49747 -0.0177699 6.25718 0.0542606 6.03383C0.126291 5.81048 0.266417 5.61527 0.45499 5.47558C0.643563 5.33589 0.871127 5.25871 1.10577 5.25488L5.66306 5.08272C5.68547 5.08117 5.70695 5.07318 5.72492 5.0597C5.74288 5.04622 5.75657 5.02784 5.76433 5.00676L7.33406 0.738104C7.41319 0.521703 7.5569 0.334844 7.74574 0.202823C7.93458 0.0708032 8.15942 0 8.38984 0C8.62025 0 8.84509 0.0708032 9.03393 0.202823C9.22277 0.334844 9.36648 0.521703 9.44561 0.738104L11.0153 5.00676C11.0231 5.02784 11.0368 5.04622 11.0548 5.0597C11.0727 5.07318 11.0942 5.08117 11.1166 5.08272L15.6739 5.25488C15.9085 5.25871 16.1361 5.33589 16.3247 5.47558C16.5133 5.61527 16.6534 5.81048 16.7254 6.03383C16.7974 6.25718 16.7978 6.49747 16.7263 6.72101C16.6549 6.94456 16.5153 7.14014 16.3271 7.28034L12.7522 10.0907C12.7337 10.1043 12.7199 10.1233 12.7127 10.145C12.7055 10.1668 12.7051 10.1902 12.7117 10.2122L13.9523 14.5872C13.9958 14.755 14.0001 14.9306 13.9649 15.1003C13.9296 15.2701 13.8558 15.4294 13.749 15.566C13.6423 15.7027 13.5055 15.8129 13.3493 15.8881C13.1932 15.9633 13.0217 16.0016 12.8484 15.9999ZM8.38224 12.2427C8.60647 12.2496 8.82347 12.3237 9.00507 12.4554L12.7826 14.9872C12.8017 15.0018 12.825 15.0097 12.8491 15.0099C12.8731 15.0101 12.8966 15.0025 12.916 14.9883C12.9353 14.974 12.9496 14.9539 12.9566 14.9309C12.9635 14.9079 12.9629 14.8832 12.9547 14.8606L11.7141 10.4856C11.6531 10.271 11.6576 10.043 11.7271 9.83101C11.7965 9.61897 11.9278 9.43255 12.104 9.29567L15.679 6.48535C15.6985 6.47165 15.7131 6.45206 15.7206 6.42945C15.7281 6.40685 15.7282 6.38242 15.7209 6.35975C15.7135 6.33709 15.6991 6.31739 15.6797 6.30353C15.6603 6.28968 15.637 6.28242 15.6131 6.2828L11.0558 6.11064C10.8327 6.10194 10.6172 6.02698 10.4368 5.89531C10.2565 5.76364 10.1194 5.58123 10.0431 5.37134L8.47338 1.10269C8.46631 1.08002 8.45217 1.06021 8.43305 1.04614C8.41392 1.03208 8.39079 1.02449 8.36705 1.02449C8.3433 1.02449 8.32018 1.03208 8.30105 1.04614C8.28192 1.06021 8.26779 1.08002 8.26071 1.10269L6.70617 5.36628C6.62989 5.57616 6.49282 5.75857 6.31246 5.89024C6.13209 6.02191 5.91659 6.09688 5.69344 6.10557L1.13616 6.27774C1.11233 6.27735 1.089 6.28462 1.06961 6.29847C1.05022 6.31232 1.03578 6.33203 1.02841 6.35469C1.02105 6.37736 1.02114 6.40178 1.02869 6.42439C1.03623 6.447 1.05083 6.46659 1.07033 6.48028L4.65033 9.29567C4.82601 9.43299 4.95688 9.61944 5.02631 9.83134C5.09574 10.0432 5.10058 10.271 5.04023 10.4856L3.8047 14.8606C3.79733 14.8825 3.79729 14.9062 3.8046 14.9282C3.81191 14.9501 3.82617 14.9691 3.84521 14.9822C3.86355 14.9978 3.8869 15.0065 3.91104 15.0065C3.93517 15.0065 3.95852 14.9978 3.97686 14.9822L7.75435 12.4503C7.93896 12.3279 8.15564 12.2627 8.37718 12.263L8.38224 12.2427Z" fill="#9631CD"/>
</svg>
