<svg width="20" height="16" viewBox="0 0 20 16" fill="none" xmlns="http://www.w3.org/2000/svg">
<path d="M17.7778 10.6667H19.5556V12.4444H17.7778V10.6667ZM17.7778 7.11111H19.5556V8.88889H17.7778V7.11111ZM19.5556 14.2222H17.7778V16C18.6667 16 19.5556 15.1111 19.5556 14.2222ZM10.6667 0H12.4444V1.77778H10.6667V0ZM17.7778 3.55556H19.5556V5.33333H17.7778V3.55556ZM17.7778 0V1.77778H19.5556C19.5556 0.888889 18.6667 0 17.7778 0ZM0 3.55556H1.77778V5.33333H0V3.55556ZM14.2222 0H16V1.77778H14.2222V0ZM14.2222 14.2222H16V16H14.2222V14.2222ZM1.77778 0C0.888889 0 0 0.888889 0 1.77778H1.77778V0ZM7.11111 0H8.88889V1.77778H7.11111V0ZM3.55556 0H5.33333V1.77778H3.55556V0ZM0 7.11111V14.2222C0 15.2 0.8 16 1.77778 16H12.4444V7.11111H0ZM1.77778 14.2222L4 11.3689L5.59111 13.28L7.81333 10.4178L10.6667 14.2222H1.77778Z" fill="#9DA2B2"/>
</svg>
