<svg width="30" height="24" viewBox="0 0 30 24" fill="none" xmlns="http://www.w3.org/2000/svg">
<path d="M27.6182 1.1985C27.4501 0.5385 26.6334 0 25.8018 0H4.19973C3.36658 0 2.54993 0.5385 2.3833 1.1985L2.08156 3H27.9184L27.6182 1.1985ZM29.1299 4.5H0.870107C0.748854 4.50008 0.628954 4.52547 0.518089 4.57453C0.407223 4.6236 0.307836 4.69526 0.226293 4.78493C0.14475 4.87459 0.0828505 4.98029 0.0445582 5.09525C0.00626585 5.21021 -0.0075745 5.33189 0.00392366 5.4525L1.38952 22.956C1.41712 23.2417 1.55017 23.5068 1.76275 23.6998C1.97533 23.8928 2.2522 23.9998 2.53942 24H27.4606C27.7478 23.9998 28.0247 23.8928 28.2372 23.6998C28.4498 23.5068 28.5829 23.2417 28.6105 22.956L29.9961 5.4525C30.0076 5.33189 29.9937 5.21021 29.9554 5.09525C29.9171 4.98029 29.8552 4.87459 29.7737 4.78493C29.6922 4.69526 29.5928 4.6236 29.4819 4.57453C29.371 4.52547 29.2511 4.50008 29.1299 4.5ZM18.6606 9.5625C19.0341 9.5625 19.3922 9.71074 19.6563 9.9746C19.9204 10.2385 20.0687 10.5963 20.0687 10.9695C20.0687 11.3427 19.9204 11.7005 19.6563 11.9644C19.3922 12.2283 19.0341 12.3765 18.6606 12.3765C18.2872 12.3765 17.929 12.2283 17.665 11.9644C17.4009 11.7005 17.2525 11.3427 17.2525 10.9695C17.2525 10.5963 17.4009 10.2385 17.665 9.9746C17.929 9.71074 18.2872 9.5625 18.6606 9.5625ZM8.24542 18L11.9774 9.429L16.2212 16.293L19.8601 14.487L21.7561 18H8.24542Z" fill="#9DA2B2"/>
</svg>
