<svg width="7" height="14" viewBox="0 0 7 14" fill="none" xmlns="http://www.w3.org/2000/svg">
<path d="M7 -3.0598e-07C6.08075 -2.65798e-07 5.17049 0.181061 4.32122 0.532843C3.47194 0.884626 2.70026 1.40024 2.05025 2.05025C1.40024 2.70026 0.884626 3.47194 0.532843 4.32122C0.18106 5.1705 -3.86343e-07 6.08075 -3.0598e-07 7C-2.25616e-07 7.91925 0.18106 8.82951 0.532843 9.67878C0.884626 10.5281 1.40024 11.2997 2.05025 11.9497C2.70026 12.5998 3.47194 13.1154 4.32122 13.4672C5.1705 13.8189 6.08075 14 7 14L7 7L7 -3.0598e-07Z" fill="#9DA2B2"/>
</svg>
