<svg width="15" height="16" viewBox="0 0 15 16" fill="none" xmlns="http://www.w3.org/2000/svg">
<path d="M14.0625 14.1177H0.9375C0.419733 14.1177 0 14.5391 0 15.0589C0 15.5786 0.419733 16 0.9375 16H14.0625C14.5803 16 15 15.5786 15 15.0589C15 14.5391 14.5803 14.1177 14.0625 14.1177Z" fill="#9DA2B2"/>
<path d="M0 13.1765L0 15.0588C0 15.5786 0.419733 16 0.9375 16C1.45527 16 1.875 15.5786 1.875 15.0588L1.875 13.1765C1.875 12.6567 1.45527 12.2353 0.9375 12.2353C0.419733 12.2353 0 12.6567 0 13.1765Z" fill="#9DA2B2"/>
<path d="M13.125 13.1765V15.0588C13.125 15.5786 13.5447 16 14.0625 16C14.5803 16 15 15.5786 15 15.0588V13.1765C15 12.6567 14.5803 12.2353 14.0625 12.2353C13.5447 12.2353 13.125 12.6567 13.125 13.1765Z" fill="#9DA2B2"/>
<path d="M7.49998 11.2941C7.30562 11.2956 7.11561 11.2364 6.95623 11.1247L3.20623 8.47061C3.00412 8.32667 2.86699 8.10826 2.82483 7.86311C2.78267 7.61796 2.8389 7.36602 2.98123 7.16238C3.05228 7.06059 3.14271 6.97393 3.2473 6.90742C3.35189 6.8409 3.46857 6.79585 3.5906 6.77484C3.71262 6.75384 3.83759 6.75731 3.95827 6.78506C4.07896 6.81281 4.19297 6.86427 4.29373 6.9365L7.49998 9.18591L10.6875 6.7765C10.8864 6.62673 11.1364 6.56242 11.3826 6.59772C11.6287 6.63302 11.8508 6.76504 12 6.96473C12.1492 7.16442 12.2132 7.41543 12.1781 7.66254C12.1429 7.90965 12.0114 8.13261 11.8125 8.28238L8.06248 11.1059C7.90021 11.2281 7.70283 11.2941 7.49998 11.2941V11.2941Z" fill="#9DA2B2"/>
<path d="M7.5 9.41177C7.25136 9.41177 7.0129 9.31261 6.83709 9.1361C6.66127 8.9596 6.5625 8.7202 6.5625 8.47059V0.941177C6.5625 0.691561 6.66127 0.452169 6.83709 0.275664C7.0129 0.0991593 7.25136 0 7.5 0C7.74864 0 7.9871 0.0991593 8.16291 0.275664C8.33873 0.452169 8.4375 0.691561 8.4375 0.941177V8.47059C8.4375 8.7202 8.33873 8.9596 8.16291 9.1361C7.9871 9.31261 7.74864 9.41177 7.5 9.41177Z" fill="#9DA2B2"/>
</svg>
