<svg width="22" height="20" viewBox="0 0 22 20" fill="none" xmlns="http://www.w3.org/2000/svg">
<path d="M20 0H17.5C17.1685 0 16.8505 0.131696 16.6161 0.366117C16.3817 0.600537 16.25 0.918479 16.25 1.25C16.25 1.58152 16.3817 1.89946 16.6161 2.13388C16.8505 2.3683 17.1685 2.5 17.5 2.5H18.75V17.5H17.5C17.1685 17.5 16.8505 17.6317 16.6161 17.8661C16.3817 18.1005 16.25 18.4185 16.25 18.75C16.25 19.0815 16.3817 19.3995 16.6161 19.6339C16.8505 19.8683 17.1685 20 17.5 20H20C20.3315 20 20.6495 19.8683 20.8839 19.6339C21.1183 19.3995 21.25 19.0815 21.25 18.75V1.25C21.25 0.918479 21.1183 0.600537 20.8839 0.366117C20.6495 0.131696 20.3315 0 20 0ZM11 4.25C10.8011 3.98478 10.505 3.80945 10.1768 3.76256C9.84859 3.71568 9.51522 3.80109 9.25 4C8.98478 4.19891 8.80945 4.49503 8.76256 4.82322C8.71568 5.15141 8.80109 5.48478 9 5.75L11.25 8.75H1.25C0.918479 8.75 0.600537 8.8817 0.366116 9.11612C0.131696 9.35054 0 9.66848 0 10C0 10.3315 0.131696 10.6495 0.366116 10.8839C0.600537 11.1183 0.918479 11.25 1.25 11.25H11.3625L9.2125 14.3C9.11658 14.4344 9.04822 14.5864 9.01137 14.7473C8.97453 14.9082 8.96991 15.0748 8.99781 15.2375C9.0257 15.4002 9.08554 15.5558 9.17388 15.6952C9.26222 15.8347 9.37731 15.9553 9.5125 16.05C9.725 16.1983 9.97835 16.277 10.2375 16.275C10.4358 16.2741 10.6311 16.226 10.8071 16.1347C10.9832 16.0434 11.135 15.9116 11.25 15.75L14.775 10.75C14.9314 10.5359 15.0157 10.2776 15.0157 10.0125C15.0157 9.74736 14.9314 9.48908 14.775 9.275L11 4.25Z" fill="#9DA2B2"/>
</svg>
