<svg width="20" height="20" viewBox="0 0 20 20" fill="none" xmlns="http://www.w3.org/2000/svg">
<path d="M19.7332 8.48006L17.4999 7.8134C17.3455 7.27427 17.1332 6.75346 16.8666 6.26007L17.9599 4.21341C18.0009 4.13616 18.016 4.04774 18.0027 3.96127C17.9895 3.8748 17.9488 3.7949 17.8866 3.73342L16.2933 2.13342C16.2318 2.0712 16.1519 2.03047 16.0654 2.01726C15.9789 2.00405 15.8905 2.01907 15.8133 2.06009L13.7799 3.14675C13.2817 2.86719 12.754 2.64361 12.2066 2.48009L11.5399 0.273434C11.5117 0.192112 11.4585 0.121834 11.3878 0.0727163C11.3171 0.0235984 11.2327 -0.00182615 11.1466 0.000102112H8.89329C8.80672 0.000505159 8.72253 0.028525 8.65299 0.0800838C8.58344 0.131643 8.53217 0.20405 8.50662 0.286767L7.83996 2.48676C7.28797 2.64941 6.75581 2.87301 6.2533 3.15342L4.25331 2.07343C4.17606 2.0324 4.08763 2.01738 4.00117 2.03059C3.9147 2.0438 3.83479 2.08454 3.77331 2.14676L2.15332 3.72675C2.0911 3.78823 2.05036 3.86813 2.03715 3.9546C2.02394 4.04107 2.03896 4.12949 2.07999 4.20675L3.15998 6.20674C2.88002 6.70713 2.65644 7.23703 2.49332 7.78673L0.286665 8.45339C0.203948 8.47894 0.131541 8.53021 0.0799817 8.59976C0.0284229 8.6693 0.000403047 8.75349 0 8.84006V11.0934C0.000403047 11.1799 0.0284229 11.2641 0.0799817 11.3337C0.131541 11.4032 0.203948 11.4545 0.286665 11.48L2.50665 12.1467C2.67155 12.6872 2.8951 13.2081 3.17332 13.7L2.07999 15.7934C2.03896 15.8706 2.02394 15.959 2.03715 16.0455C2.05036 16.132 2.0911 16.2119 2.15332 16.2734L3.74665 17.8667C3.80813 17.9289 3.88803 17.9696 3.9745 17.9828C4.06097 17.9961 4.14939 17.981 4.22665 17.94L6.28663 16.84C6.77394 17.103 7.28797 17.313 7.81996 17.4667L8.48662 19.7133C8.51217 19.7961 8.56344 19.8685 8.63299 19.92C8.70253 19.9716 8.78672 19.9996 8.87329 20H11.1266C11.2132 19.9996 11.2974 19.9716 11.3669 19.92C11.4365 19.8685 11.4877 19.7961 11.5133 19.7133L12.1799 17.46C12.7074 17.3056 13.2169 17.0955 13.6999 16.8333L15.7733 17.94C15.8505 17.981 15.9389 17.9961 16.0254 17.9828C16.1119 17.9696 16.1918 17.9289 16.2533 17.8667L17.8466 16.2734C17.9088 16.2119 17.9495 16.132 17.9627 16.0455C17.976 15.959 17.9609 15.8706 17.9199 15.7934L16.8132 13.7267C17.0782 13.2418 17.2905 12.73 17.4466 12.2L19.6932 11.5334C19.776 11.5078 19.8484 11.4566 19.8999 11.387C19.9515 11.3175 19.9795 11.2333 19.9799 11.1467V8.87339C19.9838 8.79049 19.9623 8.70837 19.9182 8.63806C19.8741 8.56775 19.8096 8.51262 19.7332 8.48006ZM10.0199 13.6667C9.29475 13.6667 8.58585 13.4517 7.98287 13.0488C7.37989 12.6459 6.90993 12.0732 6.63241 11.4032C6.35489 10.7332 6.28228 9.99599 6.42375 9.28472C6.56523 8.57346 6.91445 7.92013 7.42724 7.40734C7.94003 6.89455 8.59336 6.54534 9.30462 6.40386C10.0159 6.26238 10.7531 6.33499 11.4231 6.61251C12.0931 6.89003 12.6658 7.35999 13.0687 7.96297C13.4716 8.56595 13.6866 9.27486 13.6866 10.0001C13.6866 10.9725 13.3003 11.9051 12.6127 12.5928C11.925 13.2804 10.9924 13.6667 10.0199 13.6667Z" fill="#9DA2B2"/>
</svg>
