<svg width="19" height="18" viewBox="0 0 19 18" fill="none" xmlns="http://www.w3.org/2000/svg">
<path d="M17.93 9.57706C17.6808 8.81354 16.849 8.40767 16.0815 8.65682L14.2571 9.26362L13.0395 5.64695L14.8639 5.04015C15.6314 4.79101 16.0333 3.96319 15.7881 3.19565C15.539 2.43214 14.7071 2.02627 13.9396 2.27541L12.1152 2.88221L11.4843 0.993507C11.2351 0.229989 10.4033 -0.175881 9.63577 0.0732668C8.86823 0.322415 8.46638 1.15023 8.71151 1.91777L9.34242 3.80647L5.58912 5.06025L4.95822 3.17154C4.70907 2.40803 3.87723 2.00216 3.1097 2.2513C2.34216 2.50045 1.94031 3.32827 2.18544 4.0958L2.81635 5.98451L0.995957 6.58728C0.22842 6.83643 -0.173432 7.66425 0.0716977 8.43178C0.272624 9.01447 0.839235 9.39623 1.42192 9.42034C1.69518 9.46052 1.90414 9.35604 3.7406 8.74523L4.95822 12.3619L3.13381 12.9687C2.37029 13.2178 1.96442 14.0497 2.20955 14.8132C2.41048 15.3959 2.97709 15.7776 3.55977 15.8017C3.83303 15.8419 4.04199 15.7374 5.87846 15.1266L6.50936 17.0153C6.74646 17.6945 7.50194 18.1807 8.35788 17.9356C9.12542 17.6864 9.52727 16.8586 9.28214 16.0911L8.65123 14.2024L12.4126 12.9446L13.0435 14.8333C13.2806 15.5124 14.036 15.9987 14.892 15.7535C15.6595 15.5044 16.0614 14.6766 15.8163 13.909L15.1853 12.0203L17.0098 11.4135C17.7733 11.1724 18.1791 10.3406 17.93 9.57706ZM7.71894 11.4738L6.50133 7.8491L10.2586 6.5913L11.4763 10.216L7.71894 11.4738Z" fill="#9DA2B2"/>
</svg>
