<svg width="19" height="18" viewBox="0 0 19 18" fill="none" xmlns="http://www.w3.org/2000/svg">
<path d="M13.0355 1.22179L17.2782 5.46443C17.4188 5.60509 17.4969 5.79674 17.4954 5.99723C17.4938 6.19772 17.4126 6.39063 17.2697 6.53351L17.0639 6.73931C16.9639 6.83929 16.8384 6.90986 16.7015 6.94313C16.5646 6.9764 16.4218 6.97105 16.289 6.92768L15.1316 6.55035L12.4378 9.24409L12.4151 12.1381C12.4135 12.3386 12.3324 12.5315 12.1895 12.6744L11.3351 13.5288C11.1922 13.6717 10.9993 13.7529 10.7988 13.7544C10.5983 13.756 10.4067 13.6779 10.266 13.5372L8.14469 11.4159L5.9897 13.5709L3.84313 14.6568L4.92904 12.5102L7.08403 10.3553L4.96271 8.23394C4.82206 8.09328 4.74393 7.90163 4.74551 7.70114C4.74709 7.50065 4.82824 7.30774 4.97113 7.16486L5.82558 6.3104C5.96849 6.16756 6.16139 6.08644 6.36187 6.08489L9.25586 6.06211L11.9496 3.36837L11.5723 2.21093C11.5289 2.07814 11.5236 1.93531 11.5568 1.79845C11.5901 1.66159 11.6607 1.53609 11.7606 1.43601L11.9664 1.23021C12.1093 1.08733 12.3022 1.00617 12.5027 1.00459C12.7032 1.00301 12.8949 1.08114 13.0355 1.22179Z" fill="#9DA2B2"/>
</svg>
