<svg width="9" height="16" viewBox="0 0 9 16" fill="none" xmlns="http://www.w3.org/2000/svg">
<path d="M1.5 0H7.5C7.69891 0 7.88968 0.0802718 8.03033 0.223157C8.17098 0.366042 8.25 0.559835 8.25 0.761905V1.05295C8.24993 1.19441 8.21109 1.33305 8.13784 1.45335C8.06458 1.57365 7.95981 1.67086 7.83525 1.7341L6.75 2.28571V6.09524L8.78025 8.15771C8.92091 8.30057 8.99996 8.49433 9 8.69638V9.90476C9 10.1068 8.92098 10.3006 8.78033 10.4435C8.63968 10.5864 8.44891 10.6667 8.25 10.6667H5.25V13.7143L4.5 16L3.75 13.7143V10.6667H0.75C0.551088 10.6667 0.360322 10.5864 0.21967 10.4435C0.0790178 10.3006 0 10.1068 0 9.90476V8.69638C4.24781e-05 8.49433 0.0790881 8.30057 0.21975 8.15771L2.25 6.09524V2.28571L1.16475 1.7341C1.04019 1.67086 0.935416 1.57365 0.862164 1.45335C0.788912 1.33305 0.750074 1.19441 0.75 1.05295V0.761905C0.75 0.559835 0.829018 0.366042 0.96967 0.223157C1.11032 0.0802718 1.30109 0 1.5 0Z" fill="#9DA2B2"/>
</svg>
