<svg width="22" height="22" viewBox="0 0 22 22" fill="none" xmlns="http://www.w3.org/2000/svg">
<path d="M21.5019 10.1818L1.35922 0.0968261C1.20135 0.0177665 1.02402 -0.013911 0.848584 0.00560804C0.673149 0.0251271 0.507089 0.0950104 0.370398 0.206843C0.239859 0.316396 0.142426 0.460238 0.0890505 0.622199C0.0356753 0.784161 0.0284747 0.95782 0.0682584 1.12365L2.49453 10.0809H12.8497V11.9145H2.49453L0.0316354 20.8443C-0.0056959 20.9828 -0.0100536 21.1281 0.0189128 21.2686C0.0478791 21.4091 0.109361 21.5408 0.198416 21.6531C0.28747 21.7655 0.401611 21.8554 0.531662 21.9155C0.661713 21.9757 0.804044 22.0044 0.947211 21.9995C1.09054 21.9986 1.23166 21.964 1.35922 21.8986L21.5019 11.8137C21.6519 11.7367 21.7777 11.6199 21.8656 11.4759C21.9535 11.3319 22 11.1665 22 10.9977C22 10.829 21.9535 10.6635 21.8656 10.5195C21.7777 10.3756 21.6519 10.2587 21.5019 10.1818Z" fill="#9DA2B2"/>
</svg>
