<svg width="10" height="16" viewBox="0 0 10 16" fill="none" xmlns="http://www.w3.org/2000/svg">
<path fill-rule="evenodd" clip-rule="evenodd" d="M5.00002 1.45581C5.18942 1.45581 5.37107 1.53243 5.505 1.66881C5.63893 1.80519 5.71417 1.99016 5.71417 2.18302V15.2729C5.71417 15.4657 5.63893 15.6507 5.505 15.7871C5.37107 15.9235 5.18942 16.0001 5.00002 16.0001C4.81061 16.0001 4.62896 15.9235 4.49503 15.7871C4.3611 15.6507 4.28586 15.4657 4.28586 15.2729V2.18302C4.28586 1.99016 4.3611 1.80519 4.49503 1.66881C4.62896 1.53243 4.81061 1.45581 5.00002 1.45581Z" fill="#EEEEEE"/>
<path fill-rule="evenodd" clip-rule="evenodd" d="M4.49438 0.213646C4.56072 0.145923 4.63952 0.0921929 4.72629 0.0555319C4.81305 0.018871 4.90606 0 5 0C5.09394 0 5.18695 0.018871 5.27371 0.0555319C5.36048 0.0921929 5.43928 0.145923 5.50562 0.213646L9.79056 4.57693C9.92466 4.71348 10 4.89868 10 5.0918C10 5.28491 9.92466 5.47011 9.79056 5.60666C9.65647 5.74321 9.47459 5.81993 9.28494 5.81993C9.0953 5.81993 8.91342 5.74321 8.77932 5.60666L5 1.75679L1.22068 5.60666C1.08658 5.74321 0.904705 5.81993 0.715059 5.81993C0.525414 5.81993 0.343536 5.74321 0.209436 5.60666C0.0753365 5.47011 0 5.28491 0 5.0918C0 4.89868 0.0753365 4.71348 0.209436 4.57693L4.49438 0.213646Z" fill="#EEEEEE"/>
</svg>
