<svg version="1" xmlns="http://www.w3.org/2000/svg" width="933.333" height="933.333" viewBox="0 0 700.000000 700.000000"><path d="M46 1.6C24.1 6.3 6.1 24.4 1.5 46.5c-2.2 10.6-2.2 596.4 0 607 4.7 22.3 22.7 40.3 45 45 10.6 2.2 596.4 2.2 607 0 22.3-4.7 40.3-22.7 45-45 2.2-10.6 2.2-596.4 0-607-4.7-22.3-22.7-40.3-45-45C643.2-.7 56-.6 46 1.6zm547.3 487.3c6.2 3.8 9.2 9.3 9.2 16.7 0 5.3-.4 6.9-3 10.5-1.6 2.3-5 5.3-7.4 6.6l-4.4 2.3H112.6l-4.4-2.1c-8.3-4.1-12.7-13.7-10.2-22.8 1.3-5.1 7.5-11.6 12.2-13 2.1-.6 93-.9 241.3-.8l238 .2 3.8 2.4z"/></svg>